<?xml version="1.0" standalone="no"?>
<!DOCTYPE svg PUBLIC "-//W3C//DTD SVG 20010904//EN"
 "http://www.w3.org/TR/2001/REC-SVG-20010904/DTD/svg10.dtd">
<svg version="1.0" xmlns="http://www.w3.org/2000/svg"
 width="720.000000pt" height="720.000000pt" viewBox="0 0 720.000000 720.000000"
 preserveAspectRatio="xMidYMid meet">
<metadata>
Created by potrace 1.11, written by Peter Selinger 2001-2013
</metadata>
<g transform="translate(0.000000,720.000000) scale(0.100000,-0.100000)"
fill="#000000" stroke="none">
<path d="M0 3600 l0 -3600 3600 0 3600 0 0 3600 0 3600 -3600 0 -3600 0 0
-3600z m1765 2245 l0 -840 -610 0 -610 0 -3 843 -2 842 612 -2 613 -3 0 -840z
m4895 85 l0 -760 -1605 0 -1605 0 0 760 0 760 1605 0 1605 0 0 -760z m-1102
-2743 l0 -1703 -989 0 -989 0 -1 35 c-1 47 -1 3319 0 3349 l1 22 989 0 989 0
0 -1703z m-3701 899 l0 -673 -659 0 -658 -1 0 673 0 673 659 0 658 0 0 -672z
m43 -1757 l0 -897 -680 1 -680 1 0 891 c0 491 2 894 4 896 3 2 309 4 680 4
l676 0 0 -896z"/>
</g>
</svg>
